<?xml version="1.0" standalone="no"?>
<!DOCTYPE svg PUBLIC "-//W3C//DTD SVG 20010904//EN"
 "http://www.w3.org/TR/2001/REC-SVG-20010904/DTD/svg10.dtd">
<svg version="1.0" xmlns="http://www.w3.org/2000/svg"
 width="748.000000pt" height="748.000000pt" viewBox="0 0 748.000000 748.000000"
 preserveAspectRatio="xMidYMid meet">
<metadata>
Created by potrace 1.14, written by Peter Selinger 2001-2017
</metadata>
<g transform="translate(0.000000,748.000000) scale(0.100000,-0.100000)"
fill="#000000" stroke="none">
<path d="M3538 7455 c-1 -1 -44 -6 -95 -9 -51 -4 -100 -8 -110 -10 -10 -2 -40
-7 -68 -10 -154 -22 -143 -20 -290 -52 -135 -28 -124 -26 -185 -44 -25 -7 -49
-14 -55 -15 -5 -1 -12 -3 -15 -4 -3 -2 -12 -4 -20 -6 -34 -7 -271 -90 -345
-121 -44 -19 -85 -34 -92 -34 -7 0 -13 -4 -13 -10 0 -5 -4 -10 -9 -10 -5 0
-35 -12 -67 -26 -33 -14 -61 -25 -63 -24 -2 1 -7 -2 -10 -7 -3 -5 -28 -20 -56
-34 -270 -138 -593 -364 -797 -559 -115 -110 -194 -189 -244 -246 -32 -37 -64
-72 -69 -78 -33 -36 -144 -178 -223 -286 -50 -69 -96 -130 -102 -137 -5 -7
-10 -16 -10 -22 0 -5 -4 -11 -8 -13 -9 -4 -139 -209 -149 -235 -4 -10 -9 -20
-13 -23 -23 -18 -227 -470 -212 -470 4 0 2 -4 -3 -8 -20 -13 -123 -370 -149
-517 -3 -16 -8 -41 -11 -55 -9 -44 -14 -74 -20 -125 -3 -27 -8 -61 -10 -75
-27 -148 -26 -660 0 -825 3 -16 7 -46 9 -65 3 -19 7 -48 10 -65 3 -16 11 -59
17 -95 6 -36 15 -78 19 -95 5 -16 11 -41 14 -55 2 -14 9 -45 15 -70 7 -25 14
-53 16 -63 2 -10 27 -85 54 -165 99 -294 293 -715 403 -879 15 -23 28 -44 28
-48 0 -8 43 -69 53 -73 4 -2 7 -8 7 -14 0 -6 15 -31 32 -55 51 -68 171 -227
183 -240 5 -7 17 -20 25 -30 8 -9 32 -37 53 -62 99 -116 284 -296 422 -411 50
-41 92 -78 93 -82 2 -5 8 -8 13 -8 9 0 74 -47 106 -77 7 -6 29 -21 50 -34 21
-13 43 -27 48 -31 21 -17 115 -78 119 -78 3 0 40 -21 83 -48 43 -26 141 -78
218 -115 77 -38 153 -75 168 -83 16 -8 35 -14 43 -14 8 0 14 -5 14 -12 0 -6 2
-9 6 -6 3 3 43 -9 89 -27 132 -52 393 -132 488 -150 12 -3 45 -9 72 -15 103
-21 154 -31 180 -34 11 -2 43 -6 70 -10 28 -4 64 -9 80 -11 184 -26 721 -26
875 -1 14 2 47 7 73 11 27 4 56 8 65 9 59 11 118 19 125 18 4 -1 7 3 7 9 0 5
4 8 9 4 5 -3 31 0 58 6 26 6 55 12 63 14 8 2 35 8 60 15 25 6 55 13 67 15 12
2 27 6 32 10 6 3 19 8 30 10 10 2 56 16 102 30 46 15 90 28 97 28 6 0 12 4 12
9 0 4 7 8 15 8 30 0 274 103 426 180 152 77 439 251 447 272 2 4 8 8 12 8 14
0 120 82 120 92 0 5 4 7 8 4 4 -3 25 11 46 30 20 19 39 34 41 34 4 0 67 55
107 92 16 16 31 28 34 28 7 0 231 228 291 296 55 62 73 83 113 134 14 18 30
37 35 44 77 88 246 346 335 511 88 164 180 363 180 390 0 8 3 15 8 17 6 3 68
168 77 208 2 8 13 42 23 75 24 72 59 200 68 246 6 35 6 37 17 79 4 14 9 39 12
55 16 94 27 164 30 195 2 19 6 49 9 65 28 166 29 719 1 875 -2 14 -7 46 -9 72
-3 26 -9 63 -12 84 -3 20 -7 48 -9 63 -2 14 -4 26 -5 26 -1 0 -3 11 -6 25 -16
91 -41 196 -68 290 -9 30 -18 64 -21 74 -10 42 -78 242 -85 251 -5 6 -8 12 -9
15 0 22 -90 228 -149 345 -86 168 -159 289 -294 487 -25 36 -88 118 -98 128
-3 3 -17 21 -31 40 -15 19 -35 45 -45 56 -11 12 -37 43 -59 69 -91 108 -299
309 -430 415 -44 36 -82 67 -85 71 -13 14 -190 138 -272 190 -51 32 -97 62
-103 66 -33 26 -405 215 -405 206 0 -3 -6 -1 -13 5 -21 17 -271 114 -357 137
-8 2 -53 16 -100 30 -47 14 -103 30 -125 35 -22 5 -70 15 -106 23 -36 9 -79
18 -95 21 -16 3 -40 7 -54 10 -67 13 -219 33 -320 42 -71 7 -546 14 -552 9z"/>
</g>
</svg>
