<svg xmlns="http://www.w3.org/2000/svg" data-name="Layer 1" viewBox="0 0 60 60" x="0px" y="0px"><title>icon-library-ext-5</title><path d="M30,0.5A29.5,29.5,0,1,0,59.5,30,29.53309,29.53309,0,0,0,30,.5Zm0,58A28.5,28.5,0,1,1,58.5,30,28.53242,28.53242,0,0,1,30,58.5Z"></path><path d="M30,19.623A10.377,10.377,0,1,0,40.377,30,10.389,10.389,0,0,0,30,19.623ZM30,39.377A9.377,9.377,0,1,1,39.377,30,9.38734,9.38734,0,0,1,30,39.377Z"></path><path d="M30,23.88086A6.11914,6.11914,0,1,0,36.11914,30,6.12618,6.12618,0,0,0,30,23.88086Zm0,11.23828A5.11914,5.11914,0,1,1,35.11914,30,5.12519,5.12519,0,0,1,30,35.11914Z"></path><path d="M43.81445,11.99658a22.549,22.549,0,0,0-3.7793-2.34814,0.50007,0.50007,0,1,0-.44141.89746,21.63718,21.63718,0,0,1,6.71484,5.15088,0.49967,0.49967,0,1,0,.752-0.6582A22.62565,22.62565,0,0,0,43.81445,11.99658Z"></path><path d="M40.86523,15.84082a17.777,17.777,0,0,0-2.97266-1.84717,0.50007,0.50007,0,1,0-.44141.89746A16.80619,16.80619,0,0,1,42.666,18.8916a0.49967,0.49967,0,1,0,.752-0.6582A17.76767,17.76767,0,0,0,40.86523,15.84082Z"></path></svg>